<svg width="1368" height="710" viewBox="0 0 1368 710" fill="none" xmlns="http://www.w3.org/2000/svg">
<rect width="1368" height="710" fill="#333333"/>
<path opacity="0.1" d="M711.552 851.507C715.242 853.765 717.759 856.346 719.104 859.25C720.896 863.122 720.775 867.145 718.741 871.32C716.771 875.317 713.669 878.296 709.434 880.257C706.531 881.601 703.5 882.196 700.343 882.041C697.186 881.887 694.084 880.899 691.036 879.077L651.477 855.517C648.663 853.881 646.036 852.967 643.596 852.774C641.221 852.405 638.763 852.808 636.222 853.984L624.425 859.446L639.465 891.933C641.818 897.015 642.243 901.741 640.739 906.11C639.18 910.358 635.859 913.659 630.778 916.011C625.696 918.364 620.97 918.789 616.601 917.285C612.297 915.605 608.968 912.224 606.615 907.142L561.661 810.043C559.365 805.083 558.931 800.655 560.361 796.761C561.79 792.866 564.985 789.771 569.946 787.474L615.501 766.384C630.988 759.213 644.172 757.224 655.053 760.414C665.998 763.428 674.412 771.287 680.294 783.991C684.775 793.671 685.923 803.131 683.736 812.372C681.493 821.491 676.064 829.441 667.449 836.221C671.722 834.978 675.786 834.712 679.642 835.425C683.619 836.081 688.012 837.794 692.821 840.563L711.552 851.507ZM635.697 823.813C643.078 820.396 647.809 816.809 649.891 813.054C652.093 809.243 651.99 804.736 649.581 799.533C647.117 794.209 643.719 791.154 639.387 790.367C635.121 789.404 629.298 790.631 621.917 794.048L598.686 804.803L612.466 834.568L635.697 823.813ZM799.222 801.882C802.004 800.593 804.747 800.646 807.449 802.04C810.273 803.377 812.496 805.801 814.121 809.309C816.362 814.149 815.711 818.932 812.168 823.657C809.007 827.619 804.919 831.642 799.904 835.727C794.955 839.635 790.12 842.681 785.402 844.866C775.48 849.459 765.961 851.589 756.843 851.255C747.726 850.921 739.546 848.17 732.305 843.001C725.063 837.831 719.257 830.528 714.888 821.09C710.743 812.137 708.921 803.283 709.423 794.529C709.989 785.597 712.764 777.627 717.748 770.618C722.796 763.433 729.615 757.851 738.206 753.874C746.555 750.009 754.715 748.435 762.687 749.151C770.66 749.868 777.88 752.77 784.349 757.856C790.939 762.886 796.306 769.878 800.452 778.832C801.74 781.615 802.083 784.101 801.48 786.29C800.942 788.302 799.463 789.868 797.044 790.989L749.13 813.172C752.665 818.587 756.473 821.893 760.554 823.09C764.634 824.286 769.517 823.568 775.204 820.935C778.229 819.535 780.872 817.944 783.133 816.163C785.337 814.26 787.733 811.976 790.318 809.31C791.797 807.743 793.272 806.326 794.741 805.058C796.276 803.613 797.77 802.554 799.222 801.882ZM749.196 775.233C744.962 777.193 742.218 780.153 740.965 784.113C739.657 787.951 739.965 792.583 741.89 798.01L770.384 784.818C764.729 774.507 757.666 771.312 749.196 775.233ZM874.159 691.372C878.999 689.131 883.515 688.73 887.707 690.169C891.843 691.486 894.948 694.383 897.02 698.86L927.27 764.198C934.104 778.959 934.809 792.224 929.384 803.992C924.081 815.704 912.838 825.537 895.657 833.491C889.002 836.572 882.43 838.88 875.941 840.415C869.452 841.95 863.619 842.52 858.441 842.126C855.703 841.924 853.22 841.164 850.993 839.844C848.886 838.468 847.273 836.57 846.153 834.151C844.528 830.642 844.059 827.406 844.744 824.444C845.551 821.426 847.346 819.273 850.129 817.984C852.307 816.976 856.659 816.063 863.186 815.245C867.497 814.718 871.245 814.085 874.429 813.346C877.669 812.727 880.801 811.718 883.826 810.317C891.207 806.9 895.863 802.835 897.794 798.12C899.903 793.471 899.416 787.819 896.335 781.164L893.142 774.267C892.329 779.493 890.002 784.464 886.162 789.18C882.265 793.776 877.413 797.418 871.605 800.107C863.862 803.692 856.125 805.07 848.394 804.241C840.664 803.412 833.565 800.454 827.096 795.368C820.571 790.161 815.264 783.141 811.175 774.308C807.085 765.476 805.166 756.887 805.417 748.543C805.668 740.199 807.978 732.811 812.347 726.381C816.66 719.829 822.689 714.761 830.433 711.175C836.361 708.431 842.366 707.12 848.447 707.243C854.529 707.366 859.88 708.929 864.503 711.931C862.84 707.706 862.868 703.799 864.587 700.212C866.37 696.447 869.561 693.501 874.159 691.372ZM870.23 771.431C875.917 768.798 879.521 764.999 881.043 760.034C882.564 755.068 881.84 749.379 878.871 742.967C875.902 736.554 872.005 732.261 867.178 730.087C862.352 727.914 857.095 728.144 851.409 730.777C845.843 733.353 842.327 737.185 840.862 742.271C839.341 747.237 840.092 752.986 843.117 759.52C846.03 765.812 849.9 770.044 854.726 772.218C859.618 774.214 864.786 773.952 870.23 771.431ZM967.827 759.967C963.229 762.096 958.797 762.678 954.53 761.715C950.329 760.574 947.08 757.524 944.784 752.563L915.879 690.129C913.582 685.169 913.386 680.778 915.29 676.958C917.26 672.96 920.543 669.897 925.141 667.769C929.739 665.64 934.139 665.146 938.34 666.286C942.606 667.25 945.888 670.212 948.184 675.173L977.089 737.606C979.386 742.567 979.55 747.046 977.58 751.044C975.676 754.864 972.424 757.838 967.827 759.967ZM919.259 655.064C913.815 657.585 908.815 658.21 904.259 656.94C899.769 655.492 896.432 652.409 894.247 647.69C892.062 642.972 891.899 638.492 893.756 634.253C895.735 629.958 899.446 626.55 904.891 624.029C910.215 621.564 915.154 620.967 919.71 622.237C924.265 623.508 927.635 626.502 929.819 631.221C932.004 635.94 932.135 640.508 930.213 644.924C928.355 649.163 924.704 652.543 919.259 655.064ZM1038.1 727.875C1029.99 731.628 1022.87 734.188 1016.75 735.555C1010.62 736.922 1004.82 737.255 999.357 736.553C997.271 736.491 995.268 735.655 993.348 734.046C991.428 732.437 989.879 730.362 988.703 727.822C987.191 724.555 986.805 721.501 987.547 718.659C988.353 715.641 990.088 713.516 992.75 712.284C994.564 711.443 996.37 710.901 998.167 710.657C999.908 710.292 1002.15 710.061 1004.9 709.964C1009.39 709.503 1013.25 708.963 1016.49 708.344C1019.85 707.67 1023.83 706.268 1028.43 704.14C1031.7 702.627 1034.04 701.027 1035.46 699.34C1036.95 697.476 1037.3 695.697 1036.52 694.003C1035.9 692.672 1034.94 691.868 1033.64 691.59C1032.46 691.256 1030.45 691.375 1027.63 691.946C1024.76 692.396 1020.01 693.417 1013.4 695.008C1001.68 697.937 992.449 698.464 985.705 696.591C979.025 694.541 973.921 689.705 970.392 682.082C967.815 676.516 967.184 670.711 968.5 664.665C969.936 658.564 973.091 652.842 977.964 647.501C982.837 642.159 989.025 637.751 996.527 634.278C1001.97 631.758 1007.54 629.986 1013.24 628.965C1019.06 627.887 1024.53 627.634 1029.64 628.205C1034.4 628.646 1037.9 631.287 1040.14 636.127C1041.71 639.514 1042.12 642.778 1041.37 645.917C1040.62 649.056 1038.91 651.242 1036.25 652.474C1033.1 653.931 1028.87 654.639 1023.57 654.599C1020.05 654.612 1017 654.849 1014.42 655.308C1011.9 655.59 1009.13 656.432 1006.11 657.832C1003.08 659.233 1000.95 660.809 999.703 662.561C998.401 664.192 998.142 665.855 998.927 667.549C999.823 669.485 1001.67 670.465 1004.48 670.49C1007.4 670.458 1012.68 669.484 1020.31 667.565C1033 664.189 1042.75 663.497 1049.55 665.491C1056.29 667.365 1061.48 672.234 1065.12 680.098C1069.21 688.931 1068.8 697.718 1063.88 706.458C1059.03 715.022 1050.44 722.161 1038.1 727.875ZM1132.95 655.53C1141.28 652.26 1147.01 654.014 1150.15 660.789C1152.11 665.024 1151.93 668.926 1149.62 672.496C1147.31 676.065 1143.04 679.069 1136.82 681.507L1131.57 683.496C1120.29 687.691 1110.49 688.261 1102.17 685.207C1093.92 681.976 1087.41 675.219 1082.65 664.934L1067.77 632.81L1062.51 635.247C1052.83 639.728 1046.14 637.976 1042.44 629.99C1038.8 622.125 1041.82 615.952 1051.5 611.471L1056.77 609.034L1051.3 597.237C1049.18 592.639 1048.95 588.337 1050.62 584.331C1052.23 580.204 1055.52 576.992 1060.48 574.695C1065.44 572.398 1070.02 571.969 1074.21 573.408C1078.35 574.725 1081.48 577.683 1083.61 582.281L1089.07 594.078L1099.05 589.456C1108.73 584.975 1115.39 586.666 1119.03 594.531C1122.73 602.517 1119.74 608.75 1110.06 613.232L1100.08 617.853L1116.21 652.7C1117.28 654.999 1118.84 656.627 1120.9 657.583C1123.08 658.484 1125.28 658.491 1127.52 657.603L1132.95 655.53ZM1178.3 550.563C1182.25 548.295 1185.96 547.751 1189.45 548.929C1192.87 549.987 1195.6 552.693 1197.61 557.049C1199.85 561.889 1200.33 565.93 1199.04 569.172C1197.87 572.359 1194.52 575.599 1188.99 578.892L1183.8 581.958C1178.09 585.485 1174.63 589.437 1173.42 593.815C1172.28 598.017 1172.94 602.779 1175.41 608.103L1189.78 639.138C1192.07 644.099 1192.24 648.578 1190.27 652.575C1188.36 656.396 1185.11 659.37 1180.51 661.499C1175.92 663.628 1171.48 664.21 1167.22 663.247C1163.02 662.106 1159.77 659.056 1157.47 654.095L1128.4 591.298C1126.27 586.701 1126.13 582.431 1127.98 578.49C1129.95 574.492 1133.11 571.485 1137.47 569.469C1141.94 567.396 1146.07 566.953 1149.85 568.141C1153.76 569.272 1156.72 572.016 1158.73 576.372L1160.33 579.82C1159.8 573.6 1161.04 568.03 1164.05 563.109C1167.19 558.133 1171.12 554.403 1175.84 551.921L1178.3 550.563ZM1239.28 521.89C1253.08 515.504 1264.78 514.125 1274.39 517.755C1284.07 521.208 1292.02 529.65 1298.24 543.08L1315.8 581.012C1317.93 585.61 1318.22 589.884 1316.67 593.834C1315.18 597.608 1312.02 600.615 1307.18 602.855C1302.95 604.816 1298.88 605.23 1294.97 604.099C1291.19 602.911 1288.23 600.317 1286.08 596.315C1286.4 601.455 1285.13 606.159 1282.26 610.428C1279.38 614.696 1275.16 618.119 1269.6 620.696C1263.43 623.553 1257.3 624.919 1251.22 624.796C1245.08 624.552 1239.55 622.924 1234.63 619.913C1229.78 616.724 1226.06 612.347 1223.49 606.782C1220.52 600.369 1219.8 594.531 1221.33 589.267C1222.92 583.827 1226.96 578.579 1233.43 573.524C1239.91 568.469 1249.32 563.085 1261.66 557.371L1266.56 555.103L1265.55 552.925C1263.59 548.69 1261.22 546.113 1258.45 545.194C1255.61 544.155 1251.9 544.699 1247.3 546.828C1242.34 549.125 1235.86 554.18 1227.87 561.993C1225.54 564.249 1223.4 565.826 1221.47 566.722C1218.44 568.122 1215.52 568.154 1212.7 566.816C1209.87 565.478 1207.65 563.055 1206.03 559.546C1204.79 556.884 1204.33 554.454 1204.63 552.256C1204.94 550.058 1205.99 547.734 1207.8 545.282C1211.02 541.144 1215.53 536.925 1221.33 532.625C1227.13 528.325 1233.11 524.746 1239.28 521.89ZM1267.22 595.569C1271.58 593.552 1274.45 590.387 1275.83 586.074C1277.16 581.64 1276.7 577.003 1274.46 572.163L1273.45 569.985L1270.55 571.329C1262.8 574.915 1257.63 578.189 1255.04 581.154C1252.39 583.997 1251.82 587.052 1253.33 590.319C1254.62 593.102 1256.53 595.009 1259.07 596.04C1261.72 597.014 1264.44 596.857 1267.22 595.569ZM1382.86 539.83C1391.19 536.56 1396.92 538.314 1400.06 545.089C1402.02 549.324 1401.84 553.226 1399.53 556.796C1397.21 560.365 1392.95 563.369 1386.73 565.807L1381.48 567.796C1370.2 571.991 1360.4 572.561 1352.08 569.507C1343.82 566.276 1337.31 559.519 1332.55 549.234L1317.68 517.11L1312.42 519.547C1302.74 524.028 1296.05 522.276 1292.35 514.29C1288.71 506.425 1291.73 500.252 1301.41 495.771L1306.67 493.334L1301.21 481.537C1299.08 476.939 1298.85 472.637 1300.53 468.631C1302.14 464.504 1305.43 461.292 1310.39 458.995C1315.35 456.698 1319.93 456.269 1324.12 457.708C1328.26 459.025 1331.39 461.983 1333.52 466.581L1338.98 478.378L1348.96 473.756C1358.64 469.275 1365.3 470.966 1368.94 478.831C1372.64 486.817 1369.65 493.05 1359.97 497.532L1349.99 502.153L1366.12 537C1367.18 539.299 1368.74 540.926 1370.8 541.883C1372.98 542.784 1375.19 542.791 1377.42 541.903L1382.86 539.83ZM1430.42 545.799C1425.82 547.928 1421.39 548.51 1417.12 547.547C1412.92 546.406 1409.67 543.356 1407.38 538.395L1378.47 475.961C1376.18 471 1375.98 466.61 1377.88 462.79C1379.85 458.792 1383.14 455.729 1387.74 453.601C1392.33 451.472 1396.73 450.978 1400.93 452.118C1405.2 453.082 1408.48 456.044 1410.78 461.005L1439.68 523.438C1441.98 528.399 1442.14 532.878 1440.17 536.875C1438.27 540.696 1435.02 543.67 1430.42 545.799ZM1381.85 440.896C1376.41 443.417 1371.41 444.042 1366.85 442.772C1362.36 441.324 1359.03 438.241 1356.84 433.522C1354.66 428.803 1354.49 424.324 1356.35 420.085C1358.33 415.79 1362.04 412.382 1367.48 409.861C1372.81 407.396 1377.75 406.799 1382.3 408.069C1386.86 409.34 1390.23 412.334 1392.41 417.053C1394.6 421.772 1394.73 426.34 1392.81 430.756C1390.95 434.995 1387.3 438.375 1381.85 440.896ZM1510.49 509.169C1500.69 513.707 1491.17 515.837 1481.93 515.559C1472.76 515.104 1464.49 512.32 1457.13 507.207C1449.89 502.038 1444.08 494.734 1439.71 485.297C1435.34 475.859 1433.56 466.768 1434.36 458.022C1435.22 449.1 1438.48 441.055 1444.12 433.887C1449.76 426.719 1457.55 420.838 1467.47 416.245C1477.39 411.652 1486.91 409.522 1496.03 409.856C1505.14 410.189 1513.32 412.941 1520.57 418.11C1527.87 423.102 1533.71 430.317 1538.08 439.755C1542.45 449.192 1544.2 458.372 1543.34 467.295C1542.59 476.161 1539.43 484.238 1533.84 491.527C1528.2 498.695 1520.41 504.576 1510.49 509.169ZM1499.32 485.031C1510.81 479.709 1513.08 469.547 1506.14 454.543C1499.19 439.54 1489.97 434.699 1478.48 440.021C1466.98 445.342 1464.71 455.505 1471.65 470.508C1478.6 485.512 1487.82 490.352 1499.32 485.031ZM1591.36 358.888C1602.01 353.959 1611.42 353.496 1619.59 357.5C1627.7 361.383 1634.76 369.797 1640.75 382.744L1658.9 421.946C1661.03 426.544 1661.26 430.846 1659.59 434.853C1657.91 438.859 1654.6 442.01 1649.64 444.307C1644.68 446.604 1640.13 447.093 1635.99 445.776C1631.86 444.459 1628.72 441.501 1626.6 436.903L1609.12 399.153C1606.65 393.829 1603.89 390.405 1600.84 388.881C1597.9 387.302 1594.56 387.38 1590.81 389.117C1585.97 391.357 1582.82 394.723 1581.38 399.213C1579.99 403.527 1580.51 408.285 1582.92 413.487L1599.55 449.423C1601.68 454.021 1601.91 458.323 1600.24 462.329C1598.57 466.335 1595.25 469.487 1590.29 471.784C1585.33 474.08 1580.78 474.57 1576.64 473.253C1572.51 471.935 1569.38 468.977 1567.25 464.38L1538.17 401.583C1536.21 397.348 1536.13 393.2 1537.92 389.137C1539.66 384.954 1542.95 381.742 1547.79 379.501C1552.38 377.373 1556.6 376.963 1560.44 378.271C1564.4 379.524 1567.33 382.207 1569.24 386.321C1570.25 380.266 1572.68 374.881 1576.52 370.164C1580.36 365.448 1585.31 361.689 1591.36 358.888Z" fill="#6D6D6D"/>
<path fill-rule="evenodd" clip-rule="evenodd" d="M1182.87 611.361C1136.3 602.831 1101 562.038 1101 513H1104.28C1104.28 566.418 1147.58 609.721 1201 609.721C1254.42 609.721 1297.72 566.418 1297.72 513H1301C1301 562.038 1265.7 602.831 1219.13 611.361C1265.7 619.89 1301 660.684 1301 709.721H1297.72C1297.72 656.304 1254.42 613 1201 613C1147.58 613 1104.28 656.304 1104.28 709.721H1101C1101 660.684 1136.3 619.89 1182.87 611.361ZM1201 580.213C1163.88 580.213 1133.79 550.121 1133.79 513H1137.07C1137.07 548.31 1165.69 576.934 1201 576.934C1236.31 576.934 1264.93 548.31 1264.93 513H1268.21C1268.21 550.121 1238.12 580.213 1201 580.213ZM1201 547.426C1181.99 547.426 1166.57 532.013 1166.57 513H1169.85C1169.85 530.202 1183.8 544.148 1201 544.148C1218.2 544.148 1232.15 530.202 1232.15 513H1235.43C1235.43 532.013 1220.01 547.426 1201 547.426ZM1201 645.787C1165.69 645.787 1137.07 674.411 1137.07 709.721H1133.79C1133.79 672.6 1163.88 642.508 1201 642.508C1238.12 642.508 1268.21 672.6 1268.21 709.721H1264.93C1264.93 674.411 1236.31 645.787 1201 645.787ZM1201 678.574C1183.8 678.574 1169.85 692.52 1169.85 709.721H1166.57C1166.57 690.708 1181.99 675.295 1201 675.295C1220.01 675.295 1235.43 690.708 1235.43 709.721H1232.15C1232.15 692.52 1218.2 678.574 1201 678.574Z" fill="#C4C4C4" style="mix-blend-mode:hard-light"/>
<path fill-rule="evenodd" clip-rule="evenodd" d="M1182.87 414.361C1136.3 405.831 1101 365.038 1101 316H1104.28C1104.28 369.418 1147.58 412.721 1201 412.721C1254.42 412.721 1297.72 369.418 1297.72 316H1301C1301 365.038 1265.7 405.831 1219.13 414.361C1265.7 422.89 1301 463.684 1301 512.721H1297.72C1297.72 459.304 1254.42 416 1201 416C1147.58 416 1104.28 459.304 1104.28 512.721H1101C1101 463.684 1136.3 422.89 1182.87 414.361ZM1201 383.213C1163.88 383.213 1133.79 353.121 1133.79 316H1137.07C1137.07 351.31 1165.69 379.934 1201 379.934C1236.31 379.934 1264.93 351.31 1264.93 316H1268.21C1268.21 353.121 1238.12 383.213 1201 383.213ZM1201 350.426C1181.99 350.426 1166.57 335.013 1166.57 316H1169.85C1169.85 333.202 1183.8 347.148 1201 347.148C1218.2 347.148 1232.15 333.202 1232.15 316H1235.43C1235.43 335.013 1220.01 350.426 1201 350.426ZM1201 448.787C1165.69 448.787 1137.07 477.411 1137.07 512.721H1133.79C1133.79 475.6 1163.88 445.508 1201 445.508C1238.12 445.508 1268.21 475.6 1268.21 512.721H1264.93C1264.93 477.411 1236.31 448.787 1201 448.787ZM1201 481.574C1183.8 481.574 1169.85 495.52 1169.85 512.721H1166.57C1166.57 493.708 1181.99 478.295 1201 478.295C1220.01 478.295 1235.43 493.708 1235.43 512.721H1232.15C1232.15 495.52 1218.2 481.574 1201 481.574Z" fill="#C4C4C4" style="mix-blend-mode:hard-light"/>
<path fill-rule="evenodd" clip-rule="evenodd" d="M1182.87 217.361C1136.3 208.831 1101 168.038 1101 119H1104.28C1104.28 172.418 1147.58 215.721 1201 215.721C1254.42 215.721 1297.72 172.418 1297.72 119H1301C1301 168.038 1265.7 208.831 1219.13 217.361C1265.7 225.89 1301 266.684 1301 315.721H1297.72C1297.72 262.304 1254.42 219 1201 219C1147.58 219 1104.28 262.304 1104.28 315.721H1101C1101 266.684 1136.3 225.89 1182.87 217.361ZM1201 186.213C1163.88 186.213 1133.79 156.121 1133.79 119H1137.07C1137.07 154.31 1165.69 182.934 1201 182.934C1236.31 182.934 1264.93 154.31 1264.93 119H1268.21C1268.21 156.121 1238.12 186.213 1201 186.213ZM1201 153.426C1181.99 153.426 1166.57 138.013 1166.57 119H1169.85C1169.85 136.202 1183.8 150.148 1201 150.148C1218.2 150.148 1232.15 136.202 1232.15 119H1235.43C1235.43 138.013 1220.01 153.426 1201 153.426ZM1201 251.787C1165.69 251.787 1137.07 280.411 1137.07 315.721H1133.79C1133.79 278.6 1163.88 248.508 1201 248.508C1238.12 248.508 1268.21 278.6 1268.21 315.721H1264.93C1264.93 280.411 1236.31 251.787 1201 251.787ZM1201 284.574C1183.8 284.574 1169.85 298.52 1169.85 315.721H1166.57C1166.57 296.708 1181.99 281.295 1201 281.295C1220.01 281.295 1235.43 296.708 1235.43 315.721H1232.15C1232.15 298.52 1218.2 284.574 1201 284.574Z" fill="#C4C4C4" style="mix-blend-mode:hard-light"/>
<path fill-rule="evenodd" clip-rule="evenodd" d="M1182.87 20.3607C1136.3 11.8313 1101 -28.9623 1101 -78H1104.28C1104.28 -24.5823 1147.58 18.7213 1201 18.7213C1254.42 18.7213 1297.72 -24.5823 1297.72 -78H1301C1301 -28.9623 1265.7 11.8313 1219.13 20.3607C1265.7 28.89 1301 69.6836 1301 118.721H1297.72C1297.72 65.3036 1254.42 22 1201 22C1147.58 22 1104.28 65.3036 1104.28 118.721H1101C1101 69.6836 1136.3 28.89 1182.87 20.3607ZM1201 -10.7869C1163.88 -10.7869 1133.79 -40.8792 1133.79 -78H1137.07C1137.07 -42.69 1165.69 -14.0656 1201 -14.0656C1236.31 -14.0656 1264.93 -42.69 1264.93 -78H1268.21C1268.21 -40.8792 1238.12 -10.7869 1201 -10.7869ZM1201 -43.5738C1181.99 -43.5738 1166.57 -58.9869 1166.57 -78H1169.85C1169.85 -60.7977 1183.8 -46.8525 1201 -46.8525C1218.2 -46.8525 1232.15 -60.7977 1232.15 -78H1235.43C1235.43 -58.9869 1220.01 -43.5738 1201 -43.5738ZM1201 54.7869C1165.69 54.7869 1137.07 83.4113 1137.07 118.721H1133.79C1133.79 81.6005 1163.88 51.5082 1201 51.5082C1238.12 51.5082 1268.21 81.6005 1268.21 118.721H1264.93C1264.93 83.4113 1236.31 54.7869 1201 54.7869ZM1201 87.5738C1183.8 87.5738 1169.85 101.52 1169.85 118.721H1166.57C1166.57 99.7082 1181.99 84.2951 1201 84.2951C1220.01 84.2951 1235.43 99.7082 1235.43 118.721H1232.15C1232.15 101.52 1218.2 87.5738 1201 87.5738Z" fill="#C4C4C4" style="mix-blend-mode:hard-light"/>
<path fill-rule="evenodd" clip-rule="evenodd" d="M168.639 709.721H165.361V0H168.639V709.721ZM214.541 354.861V0H217.82V354.861H214.541ZM263.721 354.861V0H267V354.861H263.721ZM67 709.721V354.861H70.2787V709.721H67ZM116.18 709.721V354.861H119.459V709.721H116.18Z" fill="#F2F2F2" style="mix-blend-mode:hard-light"/>
</svg>
